<svg xmlns="http://www.w3.org/2000/svg" width="42.553" height="46.908" viewBox="0 0 42.553 46.908">
  <g id="Group_2573" data-name="Group 2573" transform="translate(2.653 -1)">
    <ellipse id="Ellipse_978" data-name="Ellipse 978" cx="19.11" cy="2.606" rx="19.11" ry="2.606" transform="translate(37.734 47.908) rotate(180)" fill="#f2f4f4"/>
    <g id="Group_2569" data-name="Group 2569" transform="translate(-2.653 -1)">
      <path id="Path_24961" data-name="Path 24961" d="M41.742,139.249a8.248,8.248,0,0,1,.811,3.631v13.442a1,1,0,0,1-1,1H36.3a.946.946,0,0,1-1-1v-3.335h-28v3.335a1,1,0,0,1-1,1H1a.946.946,0,0,1-1-1V142.88a7.689,7.689,0,0,1,.811-3.631l6.566-13.738a5.325,5.325,0,0,1,4.545-2.923H30.515a5.7,5.7,0,0,1,4.661,2.923Zm-35.884-.592H36.566l-4.442-9.489c-.914-1.815-1.712-2.227-3.631-2.227H13.236a3.165,3.165,0,0,0-2.82,2.227Zm4.249,6.863a3.281,3.281,0,0,0-3.335-3.232,3.193,3.193,0,0,0-3.232,3.232,3.281,3.281,0,0,0,3.232,3.335A3.36,3.36,0,0,0,10.107,145.519Zm28.892,0a3.281,3.281,0,0,0-3.335-3.232,3.193,3.193,0,0,0-3.232,3.232,3.281,3.281,0,0,0,3.232,3.335A3.352,3.352,0,0,0,39,145.519Z" transform="translate(0 -120.588)" fill="rgba(69,16,138,0.7)"/>
    </g>
  </g>
</svg>
