<svg xmlns="http://www.w3.org/2000/svg" width="47.24" height="59.688" viewBox="0 0 47.24 59.688">
  <ellipse id="Ellipse_976" data-name="Ellipse 976" cx="22.368" cy="2.621" rx="22.368" ry="2.621" transform="translate(44.737 59.688) rotate(180)" fill="#f2f4f4"/>
  <g id="business-and-trade" transform="translate(1.568 -0.178)">
    <path id="Path_24992" data-name="Path 24992" d="M24.8,3.4,3.882.22a3.373,3.373,0,0,0-2.7.742A3.4,3.4,0,0,0,0,3.512v40.1a1.909,1.909,0,0,0,1.9,1.9H8.088V35.521a3.322,3.322,0,0,1,3.33-3.33h4.758a3.322,3.322,0,0,1,3.33,3.33v9.991h8.088V6.69A3.332,3.332,0,0,0,24.8,3.4ZM10.467,27.909H7.612a1.427,1.427,0,1,1,0-2.855h2.855a1.427,1.427,0,1,1,0,2.855Zm0-5.709H7.612a1.427,1.427,0,0,1,0-2.855h2.855a1.427,1.427,0,0,1,0,2.855Zm0-5.709H7.612a1.427,1.427,0,0,1,0-2.855h2.855a1.427,1.427,0,0,1,0,2.855Zm0-5.709H7.612a1.427,1.427,0,1,1,0-2.855h2.855a1.427,1.427,0,1,1,0,2.855Zm9.515,17.127H17.127a1.427,1.427,0,0,1,0-2.855h2.855a1.427,1.427,0,0,1,0,2.855Zm0-5.709H17.127a1.427,1.427,0,0,1,0-2.855h2.855a1.427,1.427,0,0,1,0,2.855Zm0-5.709H17.127a1.427,1.427,0,0,1,0-2.855h2.855a1.427,1.427,0,0,1,0,2.855Zm0-5.709H17.127a1.427,1.427,0,1,1,0-2.855h2.855a1.427,1.427,0,1,1,0,2.855Z" transform="translate(0 0)" fill="#7c57ad"/>
    <path id="Path_24993" data-name="Path 24993" d="M29.05,12.188,15.5,9.351V37.229H28.345a3.334,3.334,0,0,0,3.33-3.33V15.443A3.314,3.314,0,0,0,29.05,12.188Zm-4.51,19.331H21.685a1.427,1.427,0,1,1,0-2.855h2.855a1.427,1.427,0,1,1,0,2.855Zm0-5.709H21.685a1.427,1.427,0,0,1,0-2.855h2.855a1.427,1.427,0,1,1,0,2.855Zm0-5.709H21.685a1.427,1.427,0,0,1,0-2.855h2.855a1.427,1.427,0,1,1,0,2.855Z" transform="translate(13.997 8.284)" fill="#7c57ad"/>
  </g>
</svg>
