<svg xmlns="http://www.w3.org/2000/svg" width="50" height="55.793" viewBox="0 0 50 55.793">
  <g id="Group_2598" data-name="Group 2598" transform="translate(-35.461 -27.166)">
    <ellipse id="Ellipse_965" data-name="Ellipse 965" cx="25" cy="2.605" rx="25" ry="2.605" transform="translate(85.461 82.959) rotate(180)" fill="#f2f4f4"/>
    <g id="surface1" transform="translate(37.392 26.757)">
      <path id="Path_24990" data-name="Path 24990" d="M3.345,23.164H7.162V34.422l2.481-3.816a3.749,3.749,0,0,1,3.244-1.718h.191a4.147,4.147,0,0,1,3.244,2.1l2.29,4.58,4.2-8.4a3.6,3.6,0,0,1,3.435-2.1h.191a3.509,3.509,0,0,1,3.244,2.29l2.48,5.725.191-.191a3.818,3.818,0,0,1,5.343-1.526A5.8,5.8,0,0,1,39.219,32.9l.954,1.717H41.7V23.164h3.816a1.909,1.909,0,0,0,1.336-3.244L25.862.839a2,2,0,0,0-2.481,0L2.392,19.92A1.753,1.753,0,0,0,3.345,23.164Zm22.9-9.541H30.06V17.44H26.244Zm0,5.725H30.06v3.816H26.244Zm-7.633-5.725h3.816V17.44H18.611Zm0,5.725h3.816v3.816H18.611Zm0,0" transform="translate(-1.348 0)" fill="#7c57ad"/>
      <path id="Path_24991" data-name="Path 24991" d="M37.49,307.452l-1.336-2.862a1.973,1.973,0,0,0-3.435,0L30.811,308.6l-4.2-9.541a1.975,1.975,0,0,0-3.435-.191l-5.915,12.021-4.007-8.015a1.881,1.881,0,0,0-3.244-.191l-3.244,4.771H.09v3.816H7.722a2.355,2.355,0,0,0,1.526-.763l1.908-3.053,4.2,8.587a1.931,1.931,0,0,0,2.671.763,1.489,1.489,0,0,0,.763-.763l5.725-11.64,4.2,9.541a1.975,1.975,0,0,0,3.435.191l2.1-4.2.191.382a2.779,2.779,0,0,0,1.717,1.145l9.541.191v-3.816Zm0,0" transform="translate(0 -270.931)" fill="#7c57ad"/>
    </g>
  </g>
</svg>
