<svg xmlns="http://www.w3.org/2000/svg" width="51.283" height="51.119" viewBox="0 0 51.283 51.119">
  <g id="Group_2597" data-name="Group 2597" transform="translate(-36.745 -28.474)">
    <path id="Path_25796" data-name="Path 25796" d="M23.268,0C36.119,0,46.537,1.167,46.537,2.606S36.119,5.212,23.268,5.212A106.756,106.756,0,0,1,0,2.606,106.756,106.756,0,0,1,23.268,0Z" transform="translate(83.282 79.594) rotate(180)" fill="#f2f4f4"/>
    <g id="fire" transform="translate(37.229 -25.93)">
      <g id="Group_2596" data-name="Group 2596" transform="translate(0.755 54.405)">
        <path id="Path_24972" data-name="Path 24972" d="M41.885,178.037H73.1V157.7l-7.949-5.111L57.2,147.482l-7.952,5.111L41.3,157.7v19.744A.516.516,0,0,0,41.885,178.037Z" transform="translate(-37.893 -138.787)" fill="rgba(124,87,173,0.08)" fill-rule="evenodd"/>
        <path id="Path_24973" data-name="Path 24973" d="M11.27,109.593a2.45,2.45,0,0,1-2.647-4.123L25.478,94.634a2.452,2.452,0,0,1,2.687.026L44.98,105.47a2.45,2.45,0,1,1-2.647,4.123L26.8,99.608Z" transform="translate(-7.497 -90.913)" fill="#7c57ad"/>
        <path id="Path_24974" data-name="Path 24974" d="M184.6,94.728l.143-.094a2.452,2.452,0,0,1,2.687.026l16.815,10.81a2.45,2.45,0,1,1-2.647,4.123l-.149-.094a2.446,2.446,0,0,0-.137-4.029Z" transform="translate(-166.761 -90.913)" fill="#45108a"/>
        <g id="Group_2595" data-name="Group 2595" transform="translate(2.071)">
          <path id="Path_24975" data-name="Path 24975" d="M269.779,172.365a17.183,17.183,0,0,1-3.226-2.6c-4.526-4.623-5.391-10.288-2.641-16.17.286-.605.608-1.2.917-1.8.231-.44.4-.6.554-.585s.291.223.437.5c.128.248.243.488.391.731.214.34,1.819,2.792,2.173,2.533.194-.14.108-.959.117-1.219a18.352,18.352,0,0,1,.445-3.144,15.408,15.408,0,0,1,1.539-4.137,10.982,10.982,0,0,1,5.476-4.908c.217-.1,1.316-.657,1.4-.24.043.22-.294.837-.385,1.1a11.4,11.4,0,0,0-.631,3.775,5.635,5.635,0,0,0,1.391,3.772,7.726,7.726,0,0,1,1.8,6.613c-.226,1.4.431.622.9.034.217-.268.426-.537.628-.819a8.414,8.414,0,0,0,1.216-2.573,5.8,5.8,0,0,0,.234-1.825c-.014-1.142.251-.991.805-.16a19.021,19.021,0,0,1,2.975,6.447,16.707,16.707,0,0,1,.426,3.235c.131,5.525-3.035,9.237-7.921,11.441h-1.013l-3.475-.263-3.515.263h-1.014Z" transform="translate(-238.747 -133.116)" fill="#7c57ad" fill-rule="evenodd"/>
          <path id="Path_24976" data-name="Path 24976" d="M405.381,237.66c.051-.146.1-.3.143-.451a5.792,5.792,0,0,0,.234-1.825c-.014-1.142.251-.991.805-.16a19.02,19.02,0,0,1,2.975,6.447,16.708,16.708,0,0,1,.426,3.235c.131,5.525-3.035,9.237-7.921,11.441H399.4c4.886-2.2,8.052-5.916,7.918-11.441a16.243,16.243,0,0,0-.426-3.235A16.565,16.565,0,0,0,405.381,237.66Z" transform="translate(-361.994 -217.099)" fill="#45108a" fill-rule="evenodd"/>
          <path id="Path_24977" data-name="Path 24977" d="M336.853,329.112a15.7,15.7,0,0,1-1.014-4.363c-.317-4.5,1.519-7.655,5.856-9.134.234-.077.931-.331.862.146-.034.243-.231.66-.305.948a8.215,8.215,0,0,0-.177,3.021,3.883,3.883,0,0,0,.854,1.953l.049.06c2,2.273,2.784,6,.865,7.369Z" transform="translate(-304.808 -289.863)" fill="#7c57ad" fill-rule="evenodd"/>
          <path id="Path_24978" data-name="Path 24978" d="M371.4,316.537a10.986,10.986,0,0,1,2.039-.922c.234-.077.931-.331.862.146-.034.243-.231.66-.306.948a8.216,8.216,0,0,0-.177,3.021,3.884,3.884,0,0,0,.854,1.953l.049.06c2,2.273,2.784,6,.865,7.369h-2.647c1.919-1.371,1.136-5.1-.865-7.369l-.049-.06a3.912,3.912,0,0,1-.857-1.953,8.278,8.278,0,0,1,.18-3.021C371.366,316.657,371.383,316.6,371.4,316.537Z" transform="translate(-336.554 -289.863)" fill="rgba(69,16,138,0.7)" fill-rule="evenodd"/>
          <path id="Path_24979" data-name="Path 24979" d="M380.868,157.314a1.278,1.278,0,0,1,0-.728,7.725,7.725,0,0,0-1.8-6.613,5.635,5.635,0,0,1-1.391-3.772,11.4,11.4,0,0,1,.631-3.775c.091-.26.428-.877.385-1.1-.083-.417-1.182.143-1.4.24a13.241,13.241,0,0,0-1.63.845s0,.009,0,.011a11.406,11.406,0,0,0-.631,3.775,5.636,5.636,0,0,0,1.391,3.772,8.061,8.061,0,0,1,1.636,2.972C379.269,157.148,379.529,157.314,380.868,157.314Z" transform="translate(-340.082 -133.118)" fill="#45108a" fill-rule="evenodd"/>
          <path id="Path_24980" data-name="Path 24980" d="M166.477,316.638h5.528a.586.586,0,0,1,.585.585v12.932h-6.7V317.223A.589.589,0,0,1,166.477,316.638Z" transform="translate(-152.006 -290.906)" fill="#7c57ad" fill-rule="evenodd"/>
          <path id="Path_24981" data-name="Path 24981" d="M197.47,316.638h2.935a.586.586,0,0,1,.585.585v12.932h-2.932V317.223A.589.589,0,0,0,197.47,316.638Z" transform="translate(-180.407 -290.906)" fill="#45108a" fill-rule="evenodd"/>
          <path id="Path_24982" data-name="Path 24982" d="M172.964,200.8a2.934,2.934,0,1,0-2.935-2.932A2.937,2.937,0,0,0,172.964,200.8Z" transform="translate(-155.729 -181.463)" fill="#7c57ad" fill-rule="evenodd"/>
          <path id="Path_24983" data-name="Path 24983" d="M186.068,194.937a2.934,2.934,0,1,1-1.468,5.477,2.934,2.934,0,0,0,0-5.083A2.908,2.908,0,0,1,186.068,194.937Z" transform="translate(-168.833 -181.463)" fill="#45108a" fill-rule="evenodd"/>
          <path id="Path_24984" data-name="Path 24984" d="M41.3,103.136l5.679-3.649V93.279H41.3Z" transform="translate(-39.964 -90.044)" fill="#7c57ad" fill-rule="evenodd"/>
          <path id="Path_24985" data-name="Path 24985" d="M28.643,64.394h7.175a.586.586,0,0,0,.585-.585V61.744a.586.586,0,0,0-.585-.585H28.643a.586.586,0,0,0-.585.585v2.064A.586.586,0,0,0,28.643,64.394Z" transform="translate(-28.058 -61.159)" fill="#7c57ad" fill-rule="evenodd"/>
          <path id="Path_24986" data-name="Path 24986" d="M76,64.394h2.932a.586.586,0,0,0,.585-.585V61.744a.586.586,0,0,0-.585-.585H76a.586.586,0,0,1,.585.585v2.064A.586.586,0,0,1,76,64.394Z" transform="translate(-71.168 -61.159)" fill="#45108a" fill-rule="evenodd"/>
          <path id="Path_24987" data-name="Path 24987" d="M71.2,316.638h5.471a.586.586,0,0,1,.585.585v5.471a.589.589,0,0,1-.585.588H71.2a.591.591,0,0,1-.588-.588v-5.471A.589.589,0,0,1,71.2,316.638Z" transform="translate(-66.324 -290.906)" fill="#7c57ad" fill-rule="evenodd"/>
          <path id="Path_24988" data-name="Path 24988" d="M103.607,316.638h2.735a.586.586,0,0,1,.585.585v5.471a.589.589,0,0,1-.585.588h-2.735Z" transform="translate(-95.998 -290.906)" fill="#7c57ad" fill-rule="evenodd"/>
          <path id="Path_24989" data-name="Path 24989" d="M71.5,93.279H68.569v8.092L71.5,99.486Z" transform="translate(-64.489 -90.044)" fill="#45108a" fill-rule="evenodd"/>
        </g>
      </g>
    </g>
  </g>
</svg>
