<svg xmlns="http://www.w3.org/2000/svg" width="37" height="56.728" viewBox="0 0 37 56.728">
  <g id="Group_2601" data-name="Group 2601" transform="translate(-45.321 -26.565)">
    <ellipse id="Ellipse_976" data-name="Ellipse 976" cx="18.5" cy="2" rx="18.5" ry="2" transform="translate(82.321 83.292) rotate(180)" fill="#f2f4f4"/>
    <g id="family-group-of-three" transform="translate(-31.369 26.564)">
      <g id="Group_2600" data-name="Group 2600" transform="translate(80.571 0.001)">
        <path id="Path_24994" data-name="Path 24994" d="M326.31,213.121a2.518,2.518,0,1,0,1.986-1.144A2.522,2.522,0,0,0,326.31,213.121Z" transform="translate(-304.556 -193.53)" fill="#7c57ad"/>
        <path id="Path_24995" data-name="Path 24995" d="M409.075,339.677c0,.138,0-.138,0,0Z" transform="translate(-380.489 -310.083)" fill="#7c57ad"/>
        <path id="Path_24996" data-name="Path 24996" d="M126.112,45.471a4.127,4.127,0,1,0-2.161-3.96A4.132,4.132,0,0,0,126.112,45.471Z" transform="translate(-120.165 -34.432)" fill="#7c57ad"/>
        <path id="Path_24997" data-name="Path 24997" d="M215.837,7.509a4.31,4.31,0,0,0,6.311-5.817,4.31,4.31,0,0,0-7.569,1.428A4.348,4.348,0,0,0,215.837,7.509Z" transform="translate(-202.769 -0.001)" fill="#7c57ad"/>
        <g id="Group_2599" data-name="Group 2599" transform="translate(10.992 9.076)">
          <path id="Path_24998" data-name="Path 24998" d="M308.353,279.241a.747.747,0,0,0,1.49-.074c0-.223,0-.443-.009-.665a5.9,5.9,0,0,0-.269-1.557,6.677,6.677,0,0,0-.513-1.239,7.138,7.138,0,0,0-2.166-2.428,3.273,3.273,0,0,0-.671-.393,2.827,2.827,0,0,0-2.7.267,6.649,6.649,0,0,0-.583.426,7.172,7.172,0,0,0-1.17,1.2,6.6,6.6,0,0,0-1.238,2.652,8.172,8.172,0,0,0-.154,1.737.747.747,0,0,0,1.49.074,5.35,5.35,0,0,1,.74-2.356v.807l-1.663,6.717c-.075.29-.124.589.441.589h1.381l.256,5.608a.872.872,0,0,0,1.742.008l.31-5.616h.093l.256,5.608a.872.872,0,0,0,1.742.008l.31-5.616h1.351a.494.494,0,0,0,.484-.591l-1.689-6.742V276.9A5.2,5.2,0,0,1,308.353,279.241Z" transform="translate(-292.241 -257.984)" fill="#7c57ad"/>
          <path id="Path_24999" data-name="Path 24999" d="M215.092,131.051l.574-2.483.078-1.541a1.64,1.64,0,0,1-1.24-1.578,8.642,8.642,0,0,1,.2-2.047,7.669,7.669,0,0,1,.739-1.926,7.387,7.387,0,0,1,.681-1.026,7.722,7.722,0,0,0,.026-.847v-7.2a13.436,13.436,0,0,1,.827,2.448,3.228,3.228,0,0,1,2.739-1.867,17.623,17.623,0,0,0-.935-2.719,13.373,13.373,0,0,0-1.751-2.873,11.809,11.809,0,0,0-1.547-1.575,9.6,9.6,0,0,0-.859-.641,6.622,6.622,0,0,0-.792-.44,4.7,4.7,0,0,0-5.128.888l-1.81,1.608a12.623,12.623,0,0,1,3.83,4.326,11.418,11.418,0,0,1,1.2,3.533,14.61,14.61,0,0,1,.17,2.516,2.144,2.144,0,0,1-2.137,2.1,2.117,2.117,0,0,1-.507-.066s1.586,5.786,1.676,6.156c.121.5.163,1.541-1,1.541h-1.923l-.147,2.6.265,6.343a1.493,1.493,0,0,0,2.982.013l.537-10.626.443,10.613a1.493,1.493,0,0,0,2.982.013l.233-4.616A.454.454,0,0,1,215.092,131.051Z" transform="translate(-206.896 -104.305)" fill="#7c57ad"/>
        </g>
        <path id="Path_25000" data-name="Path 25000" d="M94.577,155.429a.738.738,0,0,0,.571-.269.7.7,0,0,0,.155-.616L92.45,144.2v-1.638a7.451,7.451,0,0,1,.9,2.105,11.2,11.2,0,0,1,.3,1.732,1.224,1.224,0,0,0,2.442-.122c0-.393,0-.784-.019-1.177a10.458,10.458,0,0,0-.22-1.608,10.705,10.705,0,0,0-1.2-3.145,11.762,11.762,0,0,0-3.339-3.673,6.545,6.545,0,0,0-1.068-.652c-.034-.015-.068-.029-.1-.042a4.14,4.14,0,0,0-3.573-.018,4.831,4.831,0,0,0-1.108.632A11.758,11.758,0,0,0,82.1,140.2a10.473,10.473,0,0,0-.751,1.521,9.532,9.532,0,0,0-.5,1.6,15.254,15.254,0,0,0-.246,1.631,12.721,12.721,0,0,0-.029,1.309c0,.006,0,.012,0,.017a1.224,1.224,0,0,0,2.442.121,11.255,11.255,0,0,1,.3-1.732,7.676,7.676,0,0,1,.917-2.129v1.537l-2.861,10.472a.741.741,0,0,0,.727.883h2.381l.435,9.593a1.429,1.429,0,0,0,2.855.014l.527-9.606h.12l.435,9.593a1.429,1.429,0,0,0,2.855.014l.527-9.606h2.348Z" transform="translate(-80.571 -123.77)" fill="#7c57ad"/>
      </g>
    </g>
  </g>
</svg>
