<svg xmlns="http://www.w3.org/2000/svg" width="45.808" height="58.053" viewBox="0 0 45.808 58.053">
  <ellipse id="Ellipse_976" data-name="Ellipse 976" cx="21.368" cy="2.621" rx="21.368" ry="2.621" transform="translate(44.272 58.053) rotate(180)" fill="#f2f4f4"/>
  <g id="stethoscope" transform="translate(-7.5 0)">
    <path id="XMLID_155_" d="M49.144,26.55V6.247a6.247,6.247,0,1,0-12.493,0V36.785a7.635,7.635,0,1,1-15.269,0v-.742a4.842,4.842,0,0,0,4.164-4.788V29.239a12.493,12.493,0,0,0,6.941-11.184V15.269H31.1V8.653A7.273,7.273,0,0,0,24.157,1.4V0H21.381V5.552h2.776V4.177a4.493,4.493,0,0,1,4.164,4.475v6.617H26.934v2.78a6.941,6.941,0,0,1-13.881,0V15.269H11.664V8.653a4.493,4.493,0,0,1,4.164-4.475V5.552H18.6V0H15.829V1.4A7.273,7.273,0,0,0,8.888,8.653v6.617H7.5v2.787a12.492,12.492,0,0,0,6.941,11.183v2.017A4.842,4.842,0,0,0,18.6,36.044v.742a10.411,10.411,0,1,0,20.822,0V6.247a3.47,3.47,0,0,1,6.941,0v20.3a5.552,5.552,0,1,0,2.776,0ZM17.217,31.256V30.229a12.582,12.582,0,0,0,5.552,0v1.027a2.061,2.061,0,0,1-2.059,2.059H19.276A2.061,2.061,0,0,1,17.217,31.256Z" fill="#7c57ad"/>
  </g>
</svg>
