<svg xmlns="http://www.w3.org/2000/svg" width="69.206" height="55.865" viewBox="0 0 69.206 55.865">
  <g id="Group_2571" data-name="Group 2571" transform="translate(1.435 6.182)">
    <ellipse id="Ellipse_978" data-name="Ellipse 978" cx="19.11" cy="2.606" rx="19.11" ry="2.606" transform="translate(50.384 49.684) rotate(180)" fill="#f2f4f4"/>
    <g id="car-collision" transform="translate(-1.435 -6.182)">
      <g id="Group_2569" data-name="Group 2569">
        <path id="Path_24961" data-name="Path 24961" d="M42.16,119.639l-5.688,7.453,3.641-8.7a.838.838,0,0,1,.712-.712c.09,0,.17.09.351.17l.532.26.532.26C42.7,118.666,42.612,119.1,42.16,119.639ZM34.447,127.8l1.595-12.519c.17-.882-.09-1.5-.712-1.5H33.554c-.622,0-.882.532-.712,1.5Zm2.217,13.571a7.245,7.245,0,0,1,.712,3.189v11.807a.875.875,0,0,1-.882.882H31.88a.831.831,0,0,1-.882-.882v-2.929H6.4v2.929a.875.875,0,0,1-.882.882H.882A.831.831,0,0,1,0,156.371V144.564a6.754,6.754,0,0,1,.712-3.189L6.48,129.308a4.677,4.677,0,0,1,3.992-2.567H26.8a5.009,5.009,0,0,1,4.094,2.567Zm-31.518-.52H32.117l-3.9-8.335a2.9,2.9,0,0,0-3.189-1.956h-13.4a2.78,2.78,0,0,0-2.477,1.956Zm3.732,6.028a2.882,2.882,0,0,0-2.929-2.839,2.8,2.8,0,0,0-2.839,2.839,2.882,2.882,0,0,0,2.839,2.929A2.952,2.952,0,0,0,8.878,146.882Zm25.377,0a2.882,2.882,0,0,0-2.929-2.839,2.8,2.8,0,0,0-2.839,2.839,2.882,2.882,0,0,0,2.839,2.929A2.944,2.944,0,0,0,34.255,146.882Zm-1.764-19-3.641-8.7c-.17-.452-.452-.712-.712-.712h-.26c-.09,0-.09.09-.17.09l-.532.26-.452.351c-.452.26-.351.712.09,1.244Zm36.46,17.043-2.669,10.031-.351,1.334a.9.9,0,0,1-1.063.622l-4.433-1.165a.9.9,0,0,1-.622-1.063l.351-1.334.452-1.425-21.928-5.858v-1.685a9.886,9.886,0,0,0-.26-2.217,2.89,2.89,0,0,0,2.567-2.137,2.929,2.929,0,0,0-2.047-3.551,3.213,3.213,0,0,0-2.669.712l-2.047-4.264c.09-.09.17-.26.26-.351l8.7-10.122a4.91,4.91,0,0,1,3.381-1.595,4.686,4.686,0,0,1,1.165.09l15.538,3.992a4.914,4.914,0,0,1,3.28,3.551l2.477,13.141A6.4,6.4,0,0,1,68.951,144.926Zm-3.811-4.6-1.685-9.047a2.961,2.961,0,0,0-2.567-2.759l-12.338-3.381a5.129,5.129,0,0,0-1.5-.17A3.4,3.4,0,0,0,45,126.3l-6.039,7Zm-1.685,2.839a1.081,1.081,0,0,0-.531-.09h-.532a2.612,2.612,0,0,0-2.4,2.137,2.883,2.883,0,0,0,1.956,3.551,2.9,2.9,0,1,0,1.5-5.6Z" transform="translate(0 -113.781)" fill="rgba(69,16,138,0.7)"/>
      </g>
    </g>
  </g>
</svg>
