<svg xmlns="http://www.w3.org/2000/svg" width="39" height="46.509" viewBox="0 0 39 46.509">
  <g id="Group_2603" data-name="Group 2603" transform="translate(-44.991 -35.783)">
    <ellipse id="Ellipse_968" data-name="Ellipse 968" cx="19.5" cy="2.605" rx="19.5" ry="2.605" transform="translate(83.991 82.292) rotate(180)" fill="#f2f4f4"/>
    <g id="suitcase" transform="translate(45.354 35.783)">
      <path id="Path_25003" data-name="Path 25003" d="M213.409,201.117,210,206.08l2.548,1.753,3.414-4.963-.51-1.986Zm0,0" transform="translate(-195.012 -186.994)" fill="#7c57ad"/>
      <path id="Path_25004" data-name="Path 25004" d="M419.938,84.043h-.911v29.588h1.908a4.452,4.452,0,0,0,4.447-4.447v-19.7a5.451,5.451,0,0,0-5.444-5.444Zm0,0" transform="translate(-389.591 -78.232)" fill="#7c57ad"/>
      <path id="Path_25005" data-name="Path 25005" d="M140.851,5.811h-1.04a1.037,1.037,0,0,0-1.034-.97h-.053V2.616A2.633,2.633,0,0,0,136.08,0h-8.892a2.633,2.633,0,0,0-2.643,2.616V4.84h-.053a1.036,1.036,0,0,0-1.034.97h-1.041V35.4h18.433ZM126.62,2.616a.544.544,0,0,1,.569-.542h8.892a.544.544,0,0,1,.569.542V4.84H136.6a1.036,1.036,0,0,0-1.034.97h-.876a5.759,5.759,0,0,1,.876.988,5.724,5.724,0,0,1,.261,6.145l.738,2.872a1.037,1.037,0,0,1-.15.846l-4.269,6.207a1.037,1.037,0,0,1-1.442.267l-4.257-2.928a1.037,1.037,0,0,1-.267-1.442l4.269-6.207a1.037,1.037,0,0,1,.736-.443l2.914-.335a3.645,3.645,0,0,0-2.585-5.3,1.036,1.036,0,0,1-.8-.675h-3.007a1.036,1.036,0,0,0-1.034-.97h-.054Zm0,0" transform="translate(-113.489)" fill="#7c57ad"/>
      <path id="Path_25006" data-name="Path 25006" d="M6.855,84.043H5.944A5.45,5.45,0,0,0,.5,89.487v19.7a4.452,4.452,0,0,0,4.447,4.447H6.855Zm0,0" transform="translate(0 -78.232)" fill="#7c57ad"/>
    </g>
  </g>
</svg>
